<?xml version="1.0" encoding="UTF-8"?>
<svg viewBox="0 0 53 53" version="1.1" xmlns="http://www.w3.org/2000/svg">
  <path fill="currentColor" d="M0,0h1v1h-1zM1,0h1v1h-1zM2,0h1v1h-1zM3,0h1v1h-1zM4,0h1v1h-1zM5,0h1v1h-1zM6,0h1v1h-1zM12,0h1v1h-1zM14,0h1v1h-1zM15,0h1v1h-1zM16,0h1v1h-1zM19,0h1v1h-1zM20,0h1v1h-1zM22,0h1v1h-1zM25,0h1v1h-1zM27,0h1v1h-1zM30,0h1v1h-1zM31,0h1v1h-1zM32,0h1v1h-1zM36,0h1v1h-1zM38,0h1v1h-1zM39,0h1v1h-1zM40,0h1v1h-1zM41,0h1v1h-1zM42,0h1v1h-1zM43,0h1v1h-1zM44,0h1v1h-1zM0,1h1v1h-1zM6,1h1v1h-1zM8,1h1v1h-1zM9,1h1v1h-1zM10,1h1v1h-1zM13,1h1v1h-1zM15,1h1v1h-1zM16,1h1v1h-1zM18,1h1v1h-1zM19,1h1v1h-1zM20,1h1v1h-1zM22,1h1v1h-1zM23,1h1v1h-1zM24,1h1v1h-1zM26,1h1v1h-1zM27,1h1v1h-1zM28,1h1v1h-1zM29,1h1v1h-1zM30,1h1v1h-1zM35,1h1v1h-1zM38,1h1v1h-1zM44,1h1v1h-1zM0,2h1v1h-1zM2,2h1v1h-1zM3,2h1v1h-1zM4,2h1v1h-1zM6,2h1v1h-1zM8,2h1v1h-1zM10,2h1v1h-1zM11,2h1v1h-1zM14,2h1v1h-1zM20,2h1v1h-1zM22,2h1v1h-1zM25,2h1v1h-1zM28,2h1v1h-1zM29,2h1v1h-1zM30,2h1v1h-1zM31,2h1v1h-1zM32,2h1v1h-1zM35,2h1v1h-1zM38,2h1v1h-1zM40,2h1v1h-1zM41,2h1v1h-1zM42,2h1v1h-1zM44,2h1v1h-1zM0,3h1v1h-1zM2,3h1v1h-1zM3,3h1v1h-1zM4,3h1v1h-1zM6,3h1v1h-1zM8,3h1v1h-1zM10,3h1v1h-1zM11,3h1v1h-1zM12,3h1v1h-1zM15,3h1v1h-1zM18,3h1v1h-1zM19,3h1v1h-1zM25,3h1v1h-1zM27,3h1v1h-1zM28,3h1v1h-1zM29,3h1v1h-1zM35,3h1v1h-1zM36,3h1v1h-1zM38,3h1v1h-1zM40,3h1v1h-1zM41,3h1v1h-1zM42,3h1v1h-1zM44,3h1v1h-1zM0,4h1v1h-1zM2,4h1v1h-1zM3,4h1v1h-1zM4,4h1v1h-1zM6,4h1v1h-1zM8,4h1v1h-1zM9,4h1v1h-1zM11,4h1v1h-1zM13,4h1v1h-1zM14,4h1v1h-1zM15,4h1v1h-1zM19,4h1v1h-1zM20,4h1v1h-1zM21,4h1v1h-1zM22,4h1v1h-1zM23,4h1v1h-1zM24,4h1v1h-1zM25,4h1v1h-1zM26,4h1v1h-1zM30,4h1v1h-1zM31,4h1v1h-1zM34,4h1v1h-1zM35,4h1v1h-1zM36,4h1v1h-1zM38,4h1v1h-1zM40,4h1v1h-1zM41,4h1v1h-1zM42,4h1v1h-1zM44,4h1v1h-1zM0,5h1v1h-1zM6,5h1v1h-1zM8,5h1v1h-1zM9,5h1v1h-1zM10,5h1v1h-1zM11,5h1v1h-1zM15,5h1v1h-1zM17,5h1v1h-1zM18,5h1v1h-1zM19,5h1v1h-1zM20,5h1v1h-1zM24,5h1v1h-1zM25,5h1v1h-1zM26,5h1v1h-1zM29,5h1v1h-1zM30,5h1v1h-1zM31,5h1v1h-1zM38,5h1v1h-1zM44,5h1v1h-1zM0,6h1v1h-1zM1,6h1v1h-1zM2,6h1v1h-1zM3,6h1v1h-1zM4,6h1v1h-1zM5,6h1v1h-1zM6,6h1v1h-1zM8,6h1v1h-1zM10,6h1v1h-1zM12,6h1v1h-1zM14,6h1v1h-1zM16,6h1v1h-1zM18,6h1v1h-1zM20,6h1v1h-1zM22,6h1v1h-1zM24,6h1v1h-1zM26,6h1v1h-1zM28,6h1v1h-1zM30,6h1v1h-1zM32,6h1v1h-1zM34,6h1v1h-1zM36,6h1v1h-1zM38,6h1v1h-1zM39,6h1v1h-1zM40,6h1v1h-1zM41,6h1v1h-1zM42,6h1v1h-1zM43,6h1v1h-1zM44,6h1v1h-1zM10,7h1v1h-1zM11,7h1v1h-1zM12,7h1v1h-1zM13,7h1v1h-1zM16,7h1v1h-1zM17,7h1v1h-1zM18,7h1v1h-1zM20,7h1v1h-1zM24,7h1v1h-1zM27,7h1v1h-1zM28,7h1v1h-1zM29,7h1v1h-1zM32,7h1v1h-1zM33,7h1v1h-1zM34,7h1v1h-1zM36,7h1v1h-1zM2,8h1v1h-1zM5,8h1v1h-1zM6,8h1v1h-1zM7,8h1v1h-1zM8,8h1v1h-1zM12,8h1v1h-1zM14,8h1v1h-1zM15,8h1v1h-1zM19,8h1v1h-1zM20,8h1v1h-1zM21,8h1v1h-1zM22,8h1v1h-1zM23,8h1v1h-1zM24,8h1v1h-1zM27,8h1v1h-1zM30,8h1v1h-1zM32,8h1v1h-1zM35,8h1v1h-1zM37,8h1v1h-1zM39,8h1v1h-1zM40,8h1v1h-1zM41,8h1v1h-1zM42,8h1v1h-1zM43,8h1v1h-1zM0,9h1v1h-1zM2,9h1v1h-1zM3,9h1v1h-1zM4,9h1v1h-1zM8,9h1v1h-1zM11,9h1v1h-1zM12,9h1v1h-1zM16,9h1v1h-1zM18,9h1v1h-1zM20,9h1v1h-1zM22,9h1v1h-1zM25,9h1v1h-1zM28,9h1v1h-1zM31,9h1v1h-1zM35,9h1v1h-1zM37,9h1v1h-1zM39,9h1v1h-1zM41,9h1v1h-1zM44,9h1v1h-1zM0,10h1v1h-1zM3,10h1v1h-1zM5,10h1v1h-1zM6,10h1v1h-1zM8,10h1v1h-1zM10,10h1v1h-1zM11,10h1v1h-1zM13,10h1v1h-1zM14,10h1v1h-1zM16,10h1v1h-1zM21,10h1v1h-1zM24,10h1v1h-1zM26,10h1v1h-1zM27,10h1v1h-1zM28,10h1v1h-1zM29,10h1v1h-1zM32,10h1v1h-1zM33,10h1v1h-1zM35,10h1v1h-1zM37,10h1v1h-1zM39,10h1v1h-1zM42,10h1v1h-1zM44,10h1v1h-1zM1,11h1v1h-1zM3,11h1v1h-1zM5,11h1v1h-1zM10,11h1v1h-1zM11,11h1v1h-1zM18,11h1v1h-1zM20,11h1v1h-1zM22,11h1v1h-1zM26,11h1v1h-1zM28,11h1v1h-1zM32,11h1v1h-1zM39,11h1v1h-1zM40,11h1v1h-1zM41,11h1v1h-1zM43,11h1v1h-1zM44,11h1v1h-1zM0,12h1v1h-1zM2,12h1v1h-1zM3,12h1v1h-1zM6,12h1v1h-1zM7,12h1v1h-1zM9,12h1v1h-1zM11,12h1v1h-1zM12,12h1v1h-1zM14,12h1v1h-1zM15,12h1v1h-1zM20,12h1v1h-1zM22,12h1v1h-1zM23,12h1v1h-1zM24,12h1v1h-1zM25,12h1v1h-1zM30,12h1v1h-1zM32,12h1v1h-1zM37,12h1v1h-1zM38,12h1v1h-1zM40,12h1v1h-1zM4,13h1v1h-1zM5,13h1v1h-1zM7,13h1v1h-1zM11,13h1v1h-1zM12,13h1v1h-1zM13,13h1v1h-1zM16,13h1v1h-1zM17,13h1v1h-1zM25,13h1v1h-1zM27,13h1v1h-1zM28,13h1v1h-1zM29,13h1v1h-1zM33,13h1v1h-1zM35,13h1v1h-1zM37,13h1v1h-1zM39,13h1v1h-1zM42,13h1v1h-1zM44,13h1v1h-1zM0,14h1v1h-1zM4,14h1v1h-1zM6,14h1v1h-1zM8,14h1v1h-1zM9,14h1v1h-1zM10,14h1v1h-1zM11,14h1v1h-1zM15,14h1v1h-1zM17,14h1v1h-1zM21,14h1v1h-1zM22,14h1v1h-1zM24,14h1v1h-1zM25,14h1v1h-1zM27,14h1v1h-1zM28,14h1v1h-1zM29,14h1v1h-1zM32,14h1v1h-1zM33,14h1v1h-1zM41,14h1v1h-1zM42,14h1v1h-1zM43,14h1v1h-1zM44,14h1v1h-1zM0,15h1v1h-1zM1,15h1v1h-1zM2,15h1v1h-1zM3,15h1v1h-1zM5,15h1v1h-1zM7,15h1v1h-1zM10,15h1v1h-1zM14,15h1v1h-1zM16,15h1v1h-1zM18,15h1v1h-1zM19,15h1v1h-1zM22,15h1v1h-1zM27,15h1v1h-1zM29,15h1v1h-1zM30,15h1v1h-1zM32,15h1v1h-1zM33,15h1v1h-1zM37,15h1v1h-1zM38,15h1v1h-1zM39,15h1v1h-1zM40,15h1v1h-1zM41,15h1v1h-1zM0,16h1v1h-1zM3,16h1v1h-1zM4,16h1v1h-1zM6,16h1v1h-1zM7,16h1v1h-1zM8,16h1v1h-1zM9,16h1v1h-1zM11,16h1v1h-1zM15,16h1v1h-1zM17,16h1v1h-1zM20,16h1v1h-1zM21,16h1v1h-1zM23,16h1v1h-1zM24,16h1v1h-1zM26,16h1v1h-1zM27,16h1v1h-1zM28,16h1v1h-1zM29,16h1v1h-1zM32,16h1v1h-1zM34,16h1v1h-1zM35,16h1v1h-1zM37,16h1v1h-1zM38,16h1v1h-1zM40,16h1v1h-1zM43,16h1v1h-1zM44,16h1v1h-1zM5,17h1v1h-1zM7,17h1v1h-1zM13,17h1v1h-1zM14,17h1v1h-1zM15,17h1v1h-1zM18,17h1v1h-1zM19,17h1v1h-1zM22,17h1v1h-1zM24,17h1v1h-1zM28,17h1v1h-1zM29,17h1v1h-1zM30,17h1v1h-1zM31,17h1v1h-1zM32,17h1v1h-1zM33,17h1v1h-1zM35,17h1v1h-1zM37,17h1v1h-1zM40,17h1v1h-1zM44,17h1v1h-1zM2,18h1v1h-1zM4,18h1v1h-1zM6,18h1v1h-1zM16,18h1v1h-1zM17,18h1v1h-1zM19,18h1v1h-1zM20,18h1v1h-1zM23,18h1v1h-1zM24,18h1v1h-1zM26,18h1v1h-1zM27,18h1v1h-1zM28,18h1v1h-1zM29,18h1v1h-1zM30,18h1v1h-1zM33,18h1v1h-1zM35,18h1v1h-1zM37,18h1v1h-1zM39,18h1v1h-1zM40,18h1v1h-1zM42,18h1v1h-1zM44,18h1v1h-1zM2,19h1v1h-1zM3,19h1v1h-1zM5,19h1v1h-1zM7,19h1v1h-1zM18,19h1v1h-1zM19,19h1v1h-1zM20,19h1v1h-1zM22,19h1v1h-1zM23,19h1v1h-1zM24,19h1v1h-1zM26,19h1v1h-1zM28,19h1v1h-1zM31,19h1v1h-1zM32,19h1v1h-1zM33,19h1v1h-1zM35,19h1v1h-1zM36,19h1v1h-1zM37,19h1v1h-1zM40,19h1v1h-1zM41,19h1v1h-1zM44,19h1v1h-1zM1,20h1v1h-1zM4,20h1v1h-1zM5,20h1v1h-1zM6,20h1v1h-1zM7,20h1v1h-1zM8,20h1v1h-1zM9,20h1v1h-1zM13,20h1v1h-1zM18,20h1v1h-1zM20,20h1v1h-1zM21,20h1v1h-1zM22,20h1v1h-1zM23,20h1v1h-1zM24,20h1v1h-1zM25,20h1v1h-1zM28,20h1v1h-1zM30,20h1v1h-1zM32,20h1v1h-1zM33,20h1v1h-1zM34,20h1v1h-1zM35,20h1v1h-1zM36,20h1v1h-1zM37,20h1v1h-1zM38,20h1v1h-1zM39,20h1v1h-1zM40,20h1v1h-1zM2,21h1v1h-1zM3,21h1v1h-1zM4,21h1v1h-1zM8,21h1v1h-1zM10,21h1v1h-1zM15,21h1v1h-1zM17,21h1v1h-1zM20,21h1v1h-1zM24,21h1v1h-1zM25,21h1v1h-1zM26,21h1v1h-1zM35,21h1v1h-1zM36,21h1v1h-1zM40,21h1v1h-1zM41,21h1v1h-1zM42,21h1v1h-1zM44,21h1v1h-1zM0,22h1v1h-1zM2,22h1v1h-1zM4,22h1v1h-1zM6,22h1v1h-1zM8,22h1v1h-1zM9,22h1v1h-1zM10,22h1v1h-1zM11,22h1v1h-1zM14,22h1v1h-1zM16,22h1v1h-1zM17,22h1v1h-1zM19,22h1v1h-1zM20,22h1v1h-1zM22,22h1v1h-1zM24,22h1v1h-1zM25,22h1v1h-1zM26,22h1v1h-1zM27,22h1v1h-1zM28,22h1v1h-1zM30,22h1v1h-1zM31,22h1v1h-1zM32,22h1v1h-1zM33,22h1v1h-1zM35,22h1v1h-1zM36,22h1v1h-1zM38,22h1v1h-1zM40,22h1v1h-1zM44,22h1v1h-1zM1,23h1v1h-1zM2,23h1v1h-1zM3,23h1v1h-1zM4,23h1v1h-1zM8,23h1v1h-1zM9,23h1v1h-1zM10,23h1v1h-1zM11,23h1v1h-1zM12,23h1v1h-1zM13,23h1v1h-1zM14,23h1v1h-1zM15,23h1v1h-1zM17,23h1v1h-1zM20,23h1v1h-1zM24,23h1v1h-1zM25,23h1v1h-1zM26,23h1v1h-1zM27,23h1v1h-1zM32,23h1v1h-1zM36,23h1v1h-1zM40,23h1v1h-1zM41,23h1v1h-1zM0,24h1v1h-1zM1,24h1v1h-1zM2,24h1v1h-1zM4,24h1v1h-1zM5,24h1v1h-1zM6,24h1v1h-1zM7,24h1v1h-1zM8,24h1v1h-1zM11,24h1v1h-1zM18,24h1v1h-1zM20,24h1v1h-1zM21,24h1v1h-1zM22,24h1v1h-1zM23,24h1v1h-1zM24,24h1v1h-1zM26,24h1v1h-1zM27,24h1v1h-1zM29,24h1v1h-1zM31,24h1v1h-1zM32,24h1v1h-1zM33,24h1v1h-1zM35,24h1v1h-1zM36,24h1v1h-1zM37,24h1v1h-1zM38,24h1v1h-1zM39,24h1v1h-1zM40,24h1v1h-1zM41,24h1v1h-1zM43,24h1v1h-1zM4,25h1v1h-1zM5,25h1v1h-1zM8,25h1v1h-1zM12,25h1v1h-1zM16,25h1v1h-1zM18,25h1v1h-1zM19,25h1v1h-1zM20,25h1v1h-1zM22,25h1v1h-1zM25,25h1v1h-1zM29,25h1v1h-1zM30,25h1v1h-1zM32,25h1v1h-1zM35,25h1v1h-1zM39,25h1v1h-1zM41,25h1v1h-1zM42,25h1v1h-1zM44,25h1v1h-1zM1,26h1v1h-1zM3,26h1v1h-1zM5,26h1v1h-1zM6,26h1v1h-1zM7,26h1v1h-1zM8,26h1v1h-1zM9,26h1v1h-1zM10,26h1v1h-1zM12,26h1v1h-1zM14,26h1v1h-1zM17,26h1v1h-1zM18,26h1v1h-1zM19,26h1v1h-1zM21,26h1v1h-1zM22,26h1v1h-1zM23,26h1v1h-1zM24,26h1v1h-1zM26,26h1v1h-1zM28,26h1v1h-1zM29,26h1v1h-1zM31,26h1v1h-1zM33,26h1v1h-1zM34,26h1v1h-1zM36,26h1v1h-1zM38,26h1v1h-1zM39,26h1v1h-1zM40,26h1v1h-1zM41,26h1v1h-1zM44,26h1v1h-1zM2,27h1v1h-1zM3,27h1v1h-1zM5,27h1v1h-1zM8,27h1v1h-1zM9,27h1v1h-1zM12,27h1v1h-1zM13,27h1v1h-1zM14,27h1v1h-1zM17,27h1v1h-1zM19,27h1v1h-1zM20,27h1v1h-1zM21,27h1v1h-1zM22,27h1v1h-1zM23,27h1v1h-1zM24,27h1v1h-1zM26,27h1v1h-1zM29,27h1v1h-1zM32,27h1v1h-1zM33,27h1v1h-1zM34,27h1v1h-1zM35,27h1v1h-1zM38,27h1v1h-1zM41,27h1v1h-1zM1,28h1v1h-1zM3,28h1v1h-1zM6,28h1v1h-1zM8,28h1v1h-1zM9,28h1v1h-1zM10,28h1v1h-1zM12,28h1v1h-1zM13,28h1v1h-1zM14,28h1v1h-1zM15,28h1v1h-1zM22,28h1v1h-1zM24,28h1v1h-1zM26,28h1v1h-1zM32,28h1v1h-1zM35,28h1v1h-1zM36,28h1v1h-1zM38,28h1v1h-1zM41,28h1v1h-1zM44,28h1v1h-1zM0,29h1v1h-1zM1,29h1v1h-1zM4,29h1v1h-1zM5,29h1v1h-1zM9,29h1v1h-1zM11,29h1v1h-1zM17,29h1v1h-1zM18,29h1v1h-1zM19,29h1v1h-1zM21,29h1v1h-1zM22,29h1v1h-1zM23,29h1v1h-1zM24,29h1v1h-1zM26,29h1v1h-1zM27,29h1v1h-1zM30,29h1v1h-1zM32,29h1v1h-1zM33,29h1v1h-1zM37,29h1v1h-1zM38,29h1v1h-1zM39,29h1v1h-1zM44,29h1v1h-1zM0,30h1v1h-1zM4,30h1v1h-1zM6,30h1v1h-1zM8,30h1v1h-1zM9,30h1v1h-1zM11,30h1v1h-1zM17,30h1v1h-1zM19,30h1v1h-1zM20,30h1v1h-1zM23,30h1v1h-1zM24,30h1v1h-1zM29,30h1v1h-1zM30,30h1v1h-1zM31,30h1v1h-1zM32,30h1v1h-1zM33,30h1v1h-1zM35,30h1v1h-1zM38,30h1v1h-1zM39,30h1v1h-1zM40,30h1v1h-1zM41,30h1v1h-1zM44,30h1v1h-1zM1,31h1v1h-1zM2,31h1v1h-1zM3,31h1v1h-1zM10,31h1v1h-1zM12,31h1v1h-1zM14,31h1v1h-1zM20,31h1v1h-1zM21,31h1v1h-1zM25,31h1v1h-1zM27,31h1v1h-1zM29,31h1v1h-1zM31,31h1v1h-1zM32,31h1v1h-1zM33,31h1v1h-1zM34,31h1v1h-1zM35,31h1v1h-1zM36,31h1v1h-1zM38,31h1v1h-1zM39,31h1v1h-1zM43,31h1v1h-1zM0,32h1v1h-1zM2,32h1v1h-1zM3,32h1v1h-1zM4,32h1v1h-1zM5,32h1v1h-1zM6,32h1v1h-1zM7,32h1v1h-1zM9,32h1v1h-1zM10,32h1v1h-1zM11,32h1v1h-1zM12,32h1v1h-1zM14,32h1v1h-1zM15,32h1v1h-1zM16,32h1v1h-1zM18,32h1v1h-1zM19,32h1v1h-1zM27,32h1v1h-1zM29,32h1v1h-1zM30,32h1v1h-1zM32,32h1v1h-1zM35,32h1v1h-1zM38,32h1v1h-1zM39,32h1v1h-1zM41,32h1v1h-1zM0,33h1v1h-1zM1,33h1v1h-1zM3,33h1v1h-1zM7,33h1v1h-1zM8,33h1v1h-1zM9,33h1v1h-1zM10,33h1v1h-1zM11,33h1v1h-1zM12,33h1v1h-1zM14,33h1v1h-1zM15,33h1v1h-1zM19,33h1v1h-1zM21,33h1v1h-1zM22,33h1v1h-1zM26,33h1v1h-1zM28,33h1v1h-1zM29,33h1v1h-1zM31,33h1v1h-1zM33,33h1v1h-1zM35,33h1v1h-1zM36,33h1v1h-1zM39,33h1v1h-1zM41,33h1v1h-1zM43,33h1v1h-1zM44,33h1v1h-1zM4,34h1v1h-1zM6,34h1v1h-1zM9,34h1v1h-1zM11,34h1v1h-1zM12,34h1v1h-1zM15,34h1v1h-1zM16,34h1v1h-1zM17,34h1v1h-1zM18,34h1v1h-1zM19,34h1v1h-1zM20,34h1v1h-1zM22,34h1v1h-1zM23,34h1v1h-1zM29,34h1v1h-1zM30,34h1v1h-1zM31,34h1v1h-1zM32,34h1v1h-1zM33,34h1v1h-1zM36,34h1v1h-1zM37,34h1v1h-1zM38,34h1v1h-1zM41,34h1v1h-1zM42,34h1v1h-1zM44,34h1v1h-1zM1,35h1v1h-1zM2,35h1v1h-1zM3,35h1v1h-1zM4,35h1v1h-1zM9,35h1v1h-1zM11,35h1v1h-1zM13,35h1v1h-1zM16,35h1v1h-1zM20,35h1v1h-1zM21,35h1v1h-1zM24,35h1v1h-1zM26,35h1v1h-1zM27,35h1v1h-1zM28,35h1v1h-1zM29,35h1v1h-1zM30,35h1v1h-1zM32,35h1v1h-1zM33,35h1v1h-1zM34,35h1v1h-1zM35,35h1v1h-1zM36,35h1v1h-1zM37,35h1v1h-1zM39,35h1v1h-1zM40,35h1v1h-1zM41,35h1v1h-1zM0,36h1v1h-1zM3,36h1v1h-1zM4,36h1v1h-1zM6,36h1v1h-1zM8,36h1v1h-1zM9,36h1v1h-1zM10,36h1v1h-1zM11,36h1v1h-1zM13,36h1v1h-1zM14,36h1v1h-1zM17,36h1v1h-1zM19,36h1v1h-1zM20,36h1v1h-1zM21,36h1v1h-1zM22,36h1v1h-1zM23,36h1v1h-1zM24,36h1v1h-1zM25,36h1v1h-1zM26,36h1v1h-1zM27,36h1v1h-1zM30,36h1v1h-1zM31,36h1v1h-1zM32,36h1v1h-1zM33,36h1v1h-1zM34,36h1v1h-1zM35,36h1v1h-1zM36,36h1v1h-1zM37,36h1v1h-1zM38,36h1v1h-1zM39,36h1v1h-1zM40,36h1v1h-1zM43,36h1v1h-1zM44,36h1v1h-1zM8,37h1v1h-1zM11,37h1v1h-1zM12,37h1v1h-1zM15,37h1v1h-1zM19,37h1v1h-1zM20,37h1v1h-1zM24,37h1v1h-1zM25,37h1v1h-1zM27,37h1v1h-1zM28,37h1v1h-1zM31,37h1v1h-1zM33,37h1v1h-1zM35,37h1v1h-1zM36,37h1v1h-1zM40,37h1v1h-1zM44,37h1v1h-1zM0,38h1v1h-1zM1,38h1v1h-1zM2,38h1v1h-1zM3,38h1v1h-1zM4,38h1v1h-1zM5,38h1v1h-1zM6,38h1v1h-1zM8,38h1v1h-1zM9,38h1v1h-1zM10,38h1v1h-1zM14,38h1v1h-1zM15,38h1v1h-1zM20,38h1v1h-1zM22,38h1v1h-1zM24,38h1v1h-1zM30,38h1v1h-1zM33,38h1v1h-1zM35,38h1v1h-1zM36,38h1v1h-1zM38,38h1v1h-1zM40,38h1v1h-1zM41,38h1v1h-1zM42,38h1v1h-1zM43,38h1v1h-1zM44,38h1v1h-1zM0,39h1v1h-1zM6,39h1v1h-1zM8,39h1v1h-1zM9,39h1v1h-1zM11,39h1v1h-1zM12,39h1v1h-1zM13,39h1v1h-1zM14,39h1v1h-1zM15,39h1v1h-1zM18,39h1v1h-1zM19,39h1v1h-1zM20,39h1v1h-1zM24,39h1v1h-1zM25,39h1v1h-1zM29,39h1v1h-1zM30,39h1v1h-1zM31,39h1v1h-1zM32,39h1v1h-1zM33,39h1v1h-1zM34,39h1v1h-1zM36,39h1v1h-1zM40,39h1v1h-1zM41,39h1v1h-1zM43,39h1v1h-1zM44,39h1v1h-1zM0,40h1v1h-1zM2,40h1v1h-1zM3,40h1v1h-1zM4,40h1v1h-1zM6,40h1v1h-1zM10,40h1v1h-1zM12,40h1v1h-1zM13,40h1v1h-1zM14,40h1v1h-1zM16,40h1v1h-1zM18,40h1v1h-1zM20,40h1v1h-1zM21,40h1v1h-1zM22,40h1v1h-1zM23,40h1v1h-1zM24,40h1v1h-1zM25,40h1v1h-1zM27,40h1v1h-1zM28,40h1v1h-1zM29,40h1v1h-1zM32,40h1v1h-1zM34,40h1v1h-1zM36,40h1v1h-1zM37,40h1v1h-1zM38,40h1v1h-1zM39,40h1v1h-1zM40,40h1v1h-1zM43,40h1v1h-1zM44,40h1v1h-1zM0,41h1v1h-1zM2,41h1v1h-1zM3,41h1v1h-1zM4,41h1v1h-1zM6,41h1v1h-1zM10,41h1v1h-1zM12,41h1v1h-1zM14,41h1v1h-1zM16,41h1v1h-1zM20,41h1v1h-1zM22,41h1v1h-1zM23,41h1v1h-1zM24,41h1v1h-1zM26,41h1v1h-1zM29,41h1v1h-1zM30,41h1v1h-1zM31,41h1v1h-1zM33,41h1v1h-1zM36,41h1v1h-1zM40,41h1v1h-1zM43,41h1v1h-1zM44,41h1v1h-1zM0,42h1v1h-1zM2,42h1v1h-1zM3,42h1v1h-1zM4,42h1v1h-1zM6,42h1v1h-1zM8,42h1v1h-1zM10,42h1v1h-1zM11,42h1v1h-1zM14,42h1v1h-1zM18,42h1v1h-1zM21,42h1v1h-1zM23,42h1v1h-1zM25,42h1v1h-1zM27,42h1v1h-1zM28,42h1v1h-1zM31,42h1v1h-1zM32,42h1v1h-1zM35,42h1v1h-1zM36,42h1v1h-1zM39,42h1v1h-1zM40,42h1v1h-1zM42,42h1v1h-1zM43,42h1v1h-1zM44,42h1v1h-1zM0,43h1v1h-1zM6,43h1v1h-1zM9,43h1v1h-1zM10,43h1v1h-1zM11,43h1v1h-1zM12,43h1v1h-1zM14,43h1v1h-1zM15,43h1v1h-1zM19,43h1v1h-1zM20,43h1v1h-1zM21,43h1v1h-1zM22,43h1v1h-1zM23,43h1v1h-1zM25,43h1v1h-1zM26,43h1v1h-1zM27,43h1v1h-1zM28,43h1v1h-1zM33,43h1v1h-1zM35,43h1v1h-1zM39,43h1v1h-1zM41,43h1v1h-1zM0,44h1v1h-1zM1,44h1v1h-1zM2,44h1v1h-1zM3,44h1v1h-1zM4,44h1v1h-1zM5,44h1v1h-1zM6,44h1v1h-1zM9,44h1v1h-1zM10,44h1v1h-1zM13,44h1v1h-1zM16,44h1v1h-1zM17,44h1v1h-1zM24,44h1v1h-1zM25,44h1v1h-1zM29,44h1v1h-1zM32,44h1v1h-1zM34,44h1v1h-1zM36,44h1v1h-1zM40,44h1v1h-1zM44,44h1v1h-1z"/>
</svg>
